<svg xmlns="http://www.w3.org/2000/svg" width="82.636" height="84.504" viewBox="0 0 82.636 84.504">
  <path id="Icon_material-settings" data-name="Icon material-settings" d="M71.618,46.648a30.979,30.979,0,0,0,.278-3.9,30.979,30.979,0,0,0-.278-3.9L80.005,32.3a2.006,2.006,0,0,0,.477-2.544L72.532,16a2,2,0,0,0-2.425-.875l-9.9,3.975a29.043,29.043,0,0,0-6.718-3.9L51.98,4.67A1.938,1.938,0,0,0,50.032,3h-15.9a1.938,1.938,0,0,0-1.948,1.67L30.673,15.2a30.541,30.541,0,0,0-6.718,3.9l-9.9-3.975A1.939,1.939,0,0,0,11.632,16L3.682,29.753A1.96,1.96,0,0,0,4.159,32.3l8.388,6.559a31.525,31.525,0,0,0-.278,3.9,31.526,31.526,0,0,0,.278,3.9L4.159,53.207a2.005,2.005,0,0,0-.477,2.544l7.95,13.754a2,2,0,0,0,2.425.875l9.9-3.975a29.043,29.043,0,0,0,6.718,3.9l1.511,10.534a1.938,1.938,0,0,0,1.948,1.67h15.9a1.938,1.938,0,0,0,1.948-1.67L53.491,70.3a30.54,30.54,0,0,0,6.718-3.9l9.9,3.975a1.939,1.939,0,0,0,2.425-.875l7.95-13.754a2.006,2.006,0,0,0-.477-2.544l-8.388-6.559ZM42.082,56.665A13.913,13.913,0,1,1,56,42.752,13.928,13.928,0,0,1,42.082,56.665Z" transform="translate(-0.745 -0.5)" fill="none" stroke="#8967b3" stroke-width="5"/>
</svg>
