<svg xmlns="http://www.w3.org/2000/svg" width="77.011" height="73.663" viewBox="0 0 77.011 73.663">
  <g id="company" transform="translate(0.5 500.813)">
    <path id="Path_36" data-name="Path 36" d="M20.042-500.25a3.429,3.429,0,0,0-2.687,2c-.238.519-.282,1.024-.282,4.335v3.727l-2.553.846a31.658,31.658,0,0,0-3.177,1.2,5.635,5.635,0,0,0-2.049,2.271l-.312.683-.045,19.923-.03,19.938h-.49a9.348,9.348,0,0,0-3.37.995A9.8,9.8,0,0,0,.98-440.243c-.846,1.766-.98,2.658-.98,6.725,0,3.162.045,3.637.282,4.172a2.78,2.78,0,0,0,1.945,1.529c.935.223,70.622.223,71.557,0a2.78,2.78,0,0,0,1.945-1.529c.252-.549.282-1.039.282-5.062,0-4.855-.059-5.389-.861-7.022a8.325,8.325,0,0,0-2.939-3.028,7.713,7.713,0,0,0-3.652-.861H67.4v-9.4c0-10.184,0-10.229-.817-11.283a3.912,3.912,0,0,0-1.158-.92l-.757-.371H44.389v-27.836l1.306,1.277c.713.7,2.657,2.6,4.335,4.2a42.39,42.39,0,0,1,3.3,3.4c.238.43.252,1.188.267,7.794v7.319l.371.356a1.025,1.025,0,0,0,1.544.03l.327-.356-.045-7.63-.045-7.631-.4-.816c-.341-.7-1.321-1.722-5.849-6.087-2.984-2.895-5.627-5.359-5.849-5.478-.4-.193-.965-.03-9.932,2.984L24.2-492.59v-2.242a12.414,12.414,0,0,0-.223-2.984A3.428,3.428,0,0,0,20.042-500.25Zm1.113,2.316a1.221,1.221,0,0,1,.653.683,17.633,17.633,0,0,1,.163,2.954v2.479l-1.336.445-1.336.46v-3.162c0-2.954.015-3.192.3-3.548a1.263,1.263,0,0,1,.638-.445,1.841,1.841,0,0,0,.371-.089A3,3,0,0,1,21.155-497.934Zm21.007,4.721v3.029L35.9-488.091c-13.732,4.587-18.439,6.22-18.632,6.487a1.076,1.076,0,0,0,.831,1.693c.238,0,5.7-1.767,12.144-3.934s11.743-3.934,11.817-3.934a18.767,18.767,0,0,1,.1,2.806v2.806l-7.156,2.39c-13.45,4.484-17.533,5.909-17.741,6.191a1.076,1.076,0,0,0,.831,1.693c.238,0,5.7-1.767,12.159-3.934s11.773-3.934,11.817-3.934a23.352,23.352,0,0,1,.089,2.806v2.806l-7.824,2.613c-13.317,4.439-16.865,5.686-17.073,5.968a1.076,1.076,0,0,0,.831,1.692c.238,0,5.7-1.767,12.159-3.934s11.758-3.934,11.8-3.934a18.647,18.647,0,0,1,.1,2.791v2.806l-12.278,4.112c-8.536,2.865-12.367,4.216-12.545,4.424a1.069,1.069,0,0,0,.772,1.752c.223,0,5.686-1.767,12.129-3.934S42-463.729,42.058-463.729a17.956,17.956,0,0,1,.1,2.747c0,2.509-.03,2.746-.282,2.88-.148.089-3.563,1.262-7.6,2.613s-7.467,2.554-7.646,2.672a.993.993,0,0,0-.282,1.366c.534.816.356.861,8.239-1.8,4.023-1.351,7.364-2.464,7.438-2.464s.119,5.433.1,12.871l-.045,12.886-4.78.045-4.8.03v-5.894c0-3.415-.059-6.131-.148-6.428a2.567,2.567,0,0,0-2.657-1.678c-1.559.356-10.912,3.029-11.238,3.207a2.688,2.688,0,0,0-.668.49c-.638.727-.653.876-.727,5.626l-.074,4.6h-5.79L11.164-457.2l-.03-27.257.327-.653a3.353,3.353,0,0,1,.727-.936c.223-.163,5.864-2.123,12.545-4.365s13.3-4.469,14.683-4.944,2.568-.876,2.643-.876A21.413,21.413,0,0,1,42.162-493.213Zm22.625,28.608.386.46V-444.8l-.757.445a7.666,7.666,0,0,0-3.7,6.636v.861H44.389v-28.207H64.4ZM8.908-439.976v3.118H2.227l.089-.416a7.3,7.3,0,0,1,2.153-3.949,6.79,6.79,0,0,1,4.038-1.856l.4-.015ZM70.934-442.6a5.044,5.044,0,0,1,2.821,4.513l.074,1.232H62.9l.089-1.173A5.441,5.441,0,0,1,64.4-441.5c1.2-1.247,2.2-1.6,4.261-1.544A4.355,4.355,0,0,1,70.934-442.6ZM30.256-435.73l-.045,5.775H25.906l-.045-5.285-.03-5.27,2.108-.609a12.549,12.549,0,0,1,2.242-.5C30.241-441.564,30.271-438.922,30.256-435.73Zm-6.651.876v4.973H19.3l.03-4.409.045-4.424,1.93-.549c1.069-.3,2.019-.549,2.123-.549C23.56-439.827,23.6-438.743,23.6-434.854Zm-14.7,2.6v2.375H5.953a22.04,22.04,0,0,1-3.34-.148l-.386-.148v-4.454H8.908Zm51.812,0v2.375H44.389v-4.751H60.72Zm13.064-.267a11.661,11.661,0,0,1-.148,2.346c-.119.193-.876.223-5.374.223H63.021l-.045-2.346-.045-2.331H73.784Z" transform="translate(0 0)" fill="#8967b3" stroke="#8967b3" stroke-width="1"/>
    <path id="Path_37" data-name="Path 37" d="M117.756-170.12a9.1,9.1,0,0,0-2.479,1.054,1.088,1.088,0,0,0,.8,1.707,25.3,25.3,0,0,0,5.092-1.737,1.388,1.388,0,0,0,.193-.742,1.025,1.025,0,0,0-1.01-1.069A23.5,23.5,0,0,0,117.756-170.12Z" transform="translate(-97.996 -280.485)" fill="#8967b3" stroke="#8967b3" stroke-width="1"/>
    <path id="Path_38" data-name="Path 38" d="M319.876-244.659c-.772.52-.876.861-.876,2.9,0,2.019.134,2.449.891,2.91.371.208,1.128.237,6.428.237h6l.5-.341c.727-.49.906-1.173.846-3.073-.074-1.8-.282-2.361-1.069-2.732-.445-.208-1.247-.238-6.369-.238C320.381-245,320.381-245,319.876-244.659Zm11.595,2.85v.965H321.227v-1.93h10.244Z" transform="translate(-271.642 -217.393)" fill="#8967b3" stroke="#8967b3" stroke-width="1"/>
    <path id="Path_39" data-name="Path 39" d="M319.851-187.659a2.507,2.507,0,0,0-.683.7,11.826,11.826,0,0,0,.03,4.454c.46.891.5.891,7.185.891h6.072l.46-.386c.609-.52.8-1.307.727-3.1-.074-1.722-.3-2.286-1.069-2.657-.445-.208-1.247-.238-6.369-.238C320.356-188,320.356-188,319.851-187.659Zm11.594,2.85v.965H321.2v-1.93h10.244Z" transform="translate(-271.617 -265.931)" fill="#8967b3" stroke="#8967b3" stroke-width="1"/>
    <path id="Path_40" data-name="Path 40" d="M319.876-129.748c-.742.46-.876.891-.876,2.895,0,2.049.1,2.375.891,2.91.505.327.609.341,2.94.3l2.435-.044.5-.549.5-.564v-1.93c0-3.132-.149-3.266-3.667-3.266C320.707-130,320.188-129.941,319.876-129.748Zm4.172,2.94v.965h-2.821v-1.93h2.821Z" transform="translate(-271.642 -315.32)" fill="#8967b3" stroke="#8967b3" stroke-width="1"/>
  </g>
</svg>
