<svg xmlns="http://www.w3.org/2000/svg" width="37.167" height="37.045" viewBox="0 0 37.167 37.045">
  <g id="devops" transform="translate(0.527 512.112)">
    <path id="Path_4" data-name="Path 4" d="M97.559-511.594a11.146,11.146,0,0,0-5.3,1.936,13.383,13.383,0,0,0-2.344,2.294,11.293,11.293,0,0,0-1.154,1.9c0,.12-.12.113-.19-.007a.727.727,0,0,0-.584-.253.7.7,0,0,0-.633.654,7.639,7.639,0,0,0,.95,2.161c.267.26.57.218,1.619-.26.823-.373.929-.436,1.042-.676a.51.51,0,0,0,.049-.507.62.62,0,0,0-.69-.457c-.366,0-.373.007.106-.788a9.4,9.4,0,0,1,3.857-3.625,8.462,8.462,0,0,1,4.258-.964,8.379,8.379,0,0,1,3.378.57,8.519,8.519,0,0,1,3.428,2.294,8.762,8.762,0,0,1,2.583,6.524,8.788,8.788,0,0,1-2.59,6.538,9.116,9.116,0,0,1-4.814,2.682,9.721,9.721,0,0,1-7.313-1.415,12.818,12.818,0,0,1-1.267-1.063,10.959,10.959,0,0,0-2.872-2.062,10.212,10.212,0,0,0-2.689-.964,14.546,14.546,0,0,0-4.244-.028,8.832,8.832,0,0,0-3.083,1.175.685.685,0,0,0,.042.929c.267.26.577.246,1.225-.049a9.284,9.284,0,0,1,2.372-.711,11.348,11.348,0,0,1,3.568.1,9.493,9.493,0,0,1,4.49,2.449,11.384,11.384,0,0,0,2.822,2.062,11.013,11.013,0,0,0,8.537.591,10.688,10.688,0,0,0,6.1-5.307,12.813,12.813,0,0,0,.992-2.956,13.55,13.55,0,0,0-.028-4.061,10.712,10.712,0,0,0-3.463-6.06,10.458,10.458,0,0,0-6.862-2.653C98.284-511.615,97.693-511.608,97.559-511.594Z" transform="translate(-73.261 0)" fill="#8967b3" stroke="#8967b3" stroke-width="1"/>
    <path id="Path_5" data-name="Path 5" d="M265.131-457.964c-.239.127-.324.352-.408,1.126a2.088,2.088,0,0,1-.141.655c-.035.014-.267.148-.521.3a2.83,2.83,0,0,1-.535.282,4.958,4.958,0,0,1-.633-.246c-.655-.289-1-.317-1.225-.091A21.492,21.492,0,0,0,260-453.009c0,.289.2.542.732.915l.535.38v1.358l-.535.38c-.577.415-.767.683-.7.992a21.314,21.314,0,0,0,1.668,2.893c.225.19.563.155,1.239-.141l.626-.274.338.232a3.661,3.661,0,0,0,.542.31c.211.091.239.169.31.915.1,1.042.127,1.056,2.147,1.056,1.7,0,1.886-.035,2.027-.4a4.492,4.492,0,0,0,.155-.83,2.534,2.534,0,0,1,.127-.655c.028-.007.267-.141.535-.3a3.543,3.543,0,0,1,.549-.282,5.066,5.066,0,0,1,.626.246c.662.289.971.31,1.218.084a16.012,16.012,0,0,0,1.661-2.977c0-.289-.162-.479-.767-.908l-.5-.352v-.669l.007-.669.528-.387c.619-.45.732-.584.732-.88a16.237,16.237,0,0,0-1.661-2.977c-.246-.218-.556-.2-1.218.091s-.662.289-.908.113a4.989,4.989,0,0,0-.507-.289c-.176-.084-.324-.162-.331-.169s-.049-.3-.091-.64c-.091-.781-.176-1-.429-1.126A14.018,14.018,0,0,0,265.131-457.964Zm2.569,1.527c.021.127.056.387.077.577.077.563.141.647.838.992a8.545,8.545,0,0,1,.985.563c.415.3.6.31,1.2.035a2.915,2.915,0,0,1,.556-.211c.049,0,.141.106.2.225s.225.429.359.662l.253.429-.408.289c-.711.493-.676.422-.69,1.795a4.349,4.349,0,0,0,.084,1.358,2.783,2.783,0,0,0,.549.486l.458.338-.246.429c-.134.239-.3.535-.359.654s-.155.232-.2.232a2.746,2.746,0,0,1-.549-.211,1.033,1.033,0,0,0-1.351.106,7.09,7.09,0,0,1-.957.556,2.219,2.219,0,0,0-.605.373,2.177,2.177,0,0,0-.127.556c-.021.225-.063.5-.077.605l-.042.2h-.767c-.563,0-.767-.021-.767-.092a6.215,6.215,0,0,0-.211-1.253,2.177,2.177,0,0,0-.655-.408,6.258,6.258,0,0,1-.957-.563c-.472-.352-.669-.366-1.309-.077a3.837,3.837,0,0,1-.528.211,1.619,1.619,0,0,1-.324-.443c-.141-.239-.317-.535-.387-.655l-.134-.218.373-.253c.739-.514.718-.443.725-1.872a5.914,5.914,0,0,0-.07-1.358,5.751,5.751,0,0,0-.542-.45l-.464-.352.338-.591a3.817,3.817,0,0,1,.429-.655c.056-.035.275.021.57.155.655.3.845.282,1.316-.077a7.01,7.01,0,0,1,.964-.556,2.176,2.176,0,0,0,.655-.408,6.207,6.207,0,0,0,.211-1.26c0-.063.2-.084.774-.084h.767Z" transform="translate(-241.614 -49.766)" fill="#8967b3" stroke="#8967b3" stroke-width="1"/>
    <path id="Path_6" data-name="Path 6" d="M325.136-392.75a2.458,2.458,0,0,0-1.6,1.386,2.587,2.587,0,0,0,.007,1.985,2.741,2.741,0,0,0,1.239,1.239,1.843,1.843,0,0,0,1,.19,2.285,2.285,0,0,0,1.682-.633,2.551,2.551,0,0,0,.394-3.125A2.556,2.556,0,0,0,325.136-392.75Zm1.105,1.429a1.017,1.017,0,0,1,.57.866.913.913,0,0,1-.542.971.913.913,0,0,1-.971.021.742.742,0,0,1-.436-.436.9.9,0,0,1,0-.936A1.03,1.03,0,0,1,326.241-391.322Z" transform="translate(-300.493 -110.419)" fill="#8967b3" stroke="#8967b3" stroke-width="1"/>
    <path id="Path_7" data-name="Path 7" d="M42.732-265.686a.532.532,0,0,0-.232.5.683.683,0,0,0,1.274.345.654.654,0,0,0-.253-.943A.621.621,0,0,0,42.732-265.686Z" transform="translate(-39.422 -228.433)" fill="#8967b3" stroke="#8967b3" stroke-width="1"/>
    <path id="Path_8" data-name="Path 8" d="M61.28-253.894c-.232.127-.324.359-.38.95-.07.774-.084.809-.408.971-.162.084-.415.218-.556.3l-.253.155-.6-.253c-.662-.289-1.013-.324-1.239-.141a21.829,21.829,0,0,0-1.668,2.9c-.063.3.1.521.7.978l.556.408v1.316l-.563.408c-.584.429-.767.7-.69,1.006a23.665,23.665,0,0,0,1.682,2.872c.232.19.591.148,1.239-.148l.6-.267.486.3a6.3,6.3,0,0,0,.556.324,2.66,2.66,0,0,1,.155.753c.084.683.1.746.31.929l.225.2h1.591c1.738,0,1.907-.035,2.062-.4a7.6,7.6,0,0,0,.218-1.365c0-.056.12-.162.267-.232a5.837,5.837,0,0,0,.549-.324l.3-.2.612.275c.711.317,1.006.345,1.26.12a17.012,17.012,0,0,0,1.661-2.963c0-.31-.1-.436-.7-.894l-.563-.429v-.647l.007-.648.528-.387c.619-.45.732-.584.732-.88a15.789,15.789,0,0,0-1.661-2.977c-.246-.218-.528-.2-1.246.106-.612.253-.633.253-.809.134-.106-.063-.352-.2-.549-.3-.4-.2-.359-.084-.493-1.253a.841.841,0,0,0-.246-.612l-.19-.2H63.1A6.43,6.43,0,0,0,61.28-253.894Zm2.569,1.422c.014.07.049.345.077.605a.986.986,0,0,0,.725.992,3.885,3.885,0,0,1,.7.38c.218.141.479.317.577.38.26.176.486.155,1.028-.084a3.124,3.124,0,0,1,.549-.211c.049,0,.134.091.2.2s.232.408.373.662l.253.458-.415.3c-.7.486-.676.436-.676,1.851a3.891,3.891,0,0,0,.1,1.351,5.562,5.562,0,0,0,.542.443l.443.324-.246.429c-.134.239-.3.535-.359.655s-.148.232-.183.232a3.69,3.69,0,0,1-.542-.211c-.662-.289-.866-.275-1.337.084a6.519,6.519,0,0,1-.95.549c-.619.289-.7.387-.774.957-.021.19-.056.45-.077.57l-.035.232h-.767c-.57,0-.774-.021-.774-.091a5.708,5.708,0,0,0-.218-1.253,2.085,2.085,0,0,0-.648-.415,6.252,6.252,0,0,1-.957-.556c-.472-.359-.662-.366-1.337-.063-.3.134-.528.2-.57.155s-.218-.338-.408-.676l-.352-.612.274-.183a4.973,4.973,0,0,0,.549-.422l.267-.246-.014-1.246a10.975,10.975,0,0,0-.063-1.365,2.408,2.408,0,0,0-.507-.443,1.727,1.727,0,0,1-.45-.394,6.73,6.73,0,0,1,.767-1.267,3.589,3.589,0,0,1,.556.211c.662.282.816.275,1.281-.084a7,7,0,0,1,.964-.556,2.178,2.178,0,0,0,.655-.408,6.2,6.2,0,0,0,.211-1.26c0-.063.2-.084.767-.084C63.716-252.592,63.814-252.578,63.849-252.473Z" transform="translate(-52.121 -239.478)" fill="#8967b3" stroke="#8967b3" stroke-width="1"/>
    <path id="Path_9" data-name="Path 9" d="M121.21-188.72a2.5,2.5,0,0,0-1.562,1.38,2.658,2.658,0,0,0-.007,1.935,2.484,2.484,0,0,0,3.392,1.225,2.47,2.47,0,0,0-.07-4.4A2.742,2.742,0,0,0,121.21-188.72Zm1.3,1.5a1.054,1.054,0,0,1-.1,1.76.989.989,0,0,1-1.316-.253,1.031,1.031,0,0,1,.267-1.541A1.132,1.132,0,0,1,122.513-187.22Z" transform="translate(-110.967 -300.085)" fill="#8967b3" stroke="#8967b3" stroke-width="1"/>
    <path id="Path_10" data-name="Path 10" d="M1.579-229.392c-.183.091-.289.246-.5.69a10.969,10.969,0,0,0,.887,10.656,13.394,13.394,0,0,0,2.477,2.583,10.841,10.841,0,0,0,9.3,1.76,10.762,10.762,0,0,0,6.75-5.307l.3-.577.211.183a.669.669,0,0,0,1.091-.289c.113-.267.12-.239-.408-1.464-.373-.852-.577-1.1-.929-1.1a10.984,10.984,0,0,0-2.168.992.747.747,0,0,0,.063.908c.169.2.218.218.521.2l.338-.021-.282.528a9.078,9.078,0,0,1-1.541,2.069,9.029,9.029,0,0,1-5.806,2.794,10.037,10.037,0,0,1-5.208-.936,9.988,9.988,0,0,1-4.279-4.42,9.121,9.121,0,0,1-.873-3.589,9.238,9.238,0,0,1,.8-4.272c.289-.676.31-.76.239-.978A.689.689,0,0,0,1.579-229.392Z" transform="translate(0 -262.284)" fill="#8967b3" stroke="#8967b3" stroke-width="1"/>
  </g>
</svg>
