<svg xmlns="http://www.w3.org/2000/svg" width="102.599" height="120.507" viewBox="0 0 102.599 120.507">
  <g id="product_design" transform="translate(-55.685 491.388)">
    <path id="Path_11" data-name="Path 11" d="M249.56-490.331c-.534.56-.56.814-.56,5.087,0,4.171.051,4.552.509,5.01a2.036,2.036,0,0,0,1.272.509,2.035,2.035,0,0,0,1.272-.509c.483-.483.509-.839.509-5.036,0-4.426-.025-4.552-.585-5.087A1.614,1.614,0,0,0,249.56-490.331Z" transform="translate(-143.796 0)" fill="#8967b3" stroke="#8967b3" stroke-width="1"/>
    <path id="Path_12" data-name="Path 12" d="M114.272-434.343a1.77,1.77,0,0,0-1.272,1.7c0,.687.458,1.246,3.255,4.018,2.035,2.009,3.459,3.23,3.79,3.23a2.06,2.06,0,0,0,1.857-1.831c0-.661-.483-1.272-2.976-3.79C116.077-433.911,115.086-434.6,114.272-434.343Z" transform="translate(-42.385 -42.127)" fill="#8967b3" stroke="#8967b3" stroke-width="1"/>
    <path id="Path_13" data-name="Path 13" d="M370.46-434.014a24.562,24.562,0,0,0-3.586,3.23c-2.416,2.467-2.874,3.052-2.874,3.713a1.847,1.847,0,0,0,.56,1.322c1.094.992,1.6.738,5.087-2.721,2.8-2.772,3.255-3.332,3.255-4.018A1.655,1.655,0,0,0,370.46-434.014Z" transform="translate(-229.548 -42.278)" fill="#8967b3" stroke="#8967b3" stroke-width="1"/>
    <path id="Path_14" data-name="Path 14" d="M152.1-427.69a34.467,34.467,0,0,0-12.462,3.561,34.958,34.958,0,0,0-18.617,24.161,32.107,32.107,0,0,0-.432,7.248c.025,4.832.051,5.239.788,8.012,1.679,6.358,3.611,9.741,9.614,16.786a25.923,25.923,0,0,1,4.451,8.9,28.341,28.341,0,0,1,.661,5.723c.076,1.958.178,3.917.254,4.349a5.946,5.946,0,0,0,2.772,3.688l1.144.61v7.6a65.964,65.964,0,0,0,.28,8.571,5.982,5.982,0,0,0,3.128,3.433c1.3.61,1.323.61,11.343.61s10.046,0,11.343-.61a5.982,5.982,0,0,0,3.128-3.433,66.2,66.2,0,0,0,.28-8.6v-7.655l.788-.305a6.263,6.263,0,0,0,2.8-2.925c.382-.814.483-1.679.483-4.222,0-7.4,1.755-12.03,6.587-17.4a35.209,35.209,0,0,0,8.8-18.159,43.6,43.6,0,0,0-.254-12.488,34.607,34.607,0,0,0-9.868-17.727,33.636,33.636,0,0,0-16.3-8.978,50.924,50.924,0,0,0-8.164-.992Zm7.782,3.815A31.128,31.128,0,0,1,176.9-415.2a30.674,30.674,0,0,1,9.156,22.1,30.548,30.548,0,0,1-8.164,20.982c-3.739,4.222-5.57,7.5-6.765,12.03a26.209,26.209,0,0,0-.763,6.638c-.153,3.942-.178,4.222-.738,4.781-.483.458-.865.585-2.009.585h-1.4v-40.668l-4.959-9.919c-5.29-10.631-5.214-10.5-6.867-10.1-.56.152-1.373,1.6-5.6,10.1l-4.959,9.919v40.668h-1.4c-1.145,0-1.526-.127-2.009-.585-.534-.534-.585-.839-.738-4.629a26.215,26.215,0,0,0-2.594-11.547,28.289,28.289,0,0,0-4.909-7.2,32.028,32.028,0,0,1-7.6-14.395,41.344,41.344,0,0,1-.2-11.928,31.247,31.247,0,0,1,13.4-20.6A30.948,30.948,0,0,1,159.883-423.875Zm-4.018,22.254a9.761,9.761,0,0,1,.687,1.653c0,.153-.687.254-1.526.254s-1.526-.1-1.526-.254a12.218,12.218,0,0,1,1.526-3.052A5.863,5.863,0,0,1,155.865-401.621Zm4.375,8.774a33.31,33.31,0,0,1,1.653,3.561c0,.534-1.475.229-2.416-.509a4.212,4.212,0,0,0-1.2-.763,3.655,3.655,0,0,0-1.679.941,2.486,2.486,0,0,1-3.281-.153c-.839-.89-1.653-.89-2.721-.051-.966.763-2.442,1.093-2.442.534a33.311,33.311,0,0,1,1.653-3.561l1.653-3.306h7.121Zm-10.046,25.992v18.77h-2.8v-18.643c0-10.275.051-18.719.1-18.769a6.018,6.018,0,0,1,1.4-.1h1.3Zm6.1,0v18.77h-2.543V-385.6H156.3Zm6.307.051.051,18.719h-2.8V-385.6l1.348.025,1.323.051Zm3.611,25.586v3.306H143.835v-6.613h22.381Zm0,9.309c0,2.34-.025,2.467-.738,3.179l-.738.738H145.31l-.738-.738c-.712-.712-.738-.839-.738-3.179v-2.442h22.381Z" transform="translate(-48.041 -46.949)" fill="#8967b3" stroke="#8967b3" stroke-width="1"/>
    <path id="Path_15" data-name="Path 15" d="M56.652-297.339a1.449,1.449,0,0,0,.1,2.264c.61.636.687.636,5.036.636,3.942,0,4.5-.051,5.036-.458a1.887,1.887,0,0,0,.1-2.594c-.432-.483-.763-.509-5.112-.509H57.161Z" transform="translate(0 -143.83)" fill="#8967b3" stroke="#8967b3" stroke-width="1"/>
    <path id="Path_16" data-name="Path 16" d="M411.818-297.313a1.63,1.63,0,0,0,.305,2.416c.458.407,1.094.458,4.959.458,4.349,0,4.425,0,5.036-.636a1.449,1.449,0,0,0,.1-2.264l-.509-.661h-9.359Z" transform="translate(-264.904 -143.83)" fill="#8967b3" stroke="#8967b3" stroke-width="1"/>
    <path id="Path_17" data-name="Path 17" d="M116.128-179.872c-2.7,2.7-3.128,3.23-3.128,3.942a1.784,1.784,0,0,0,1.7,1.831c.966,0,7.2-6.155,7.2-7.121a1.63,1.63,0,0,0-1.729-1.78C119.333-183,118.977-182.72,116.128-179.872Z" transform="translate(-42.385 -229.583)" fill="#8967b3" stroke="#8967b3" stroke-width="1"/>
    <path id="Path_18" data-name="Path 18" d="M364.432-182.542a1.977,1.977,0,0,0-.432,1.221c0,.636.534,1.3,3.255,3.993,2.543,2.518,3.433,3.23,3.942,3.23a1.784,1.784,0,0,0,1.7-1.831c0-.712-.432-1.246-3.128-3.942-2.823-2.823-3.2-3.128-4.018-3.128A1.843,1.843,0,0,0,364.432-182.542Z" transform="translate(-229.548 -229.583)" fill="#8967b3" stroke="#8967b3" stroke-width="1"/>
  </g>
</svg>
