<svg xmlns="http://www.w3.org/2000/svg" width="39.848" height="39.942" viewBox="0 0 39.848 39.942">
  <g id="quality_assurance" transform="translate(-0.636 512.424)">
    <path id="Path_22" data-name="Path 22" d="M20.091-511.749c-.167.091-1.141.723-2.16,1.4l-1.849,1.217-.4-.031c-1.552-.129-4.534-.251-4.694-.19a1.014,1.014,0,0,0-.342.243c-.091.1-.647,1.141-1.232,2.313l-1.065,2.13-2.168,1.088c-2.358,1.179-2.571,1.331-2.556,1.826,0,.152.061,1.3.129,2.556l.129,2.267-1.354,2.062a20.417,20.417,0,0,0-1.4,2.3c-.053.312-.023.365,1.468,2.632l1.27,1.925-.129,2.533c-.129,2.351-.129,2.541-.008,2.724.167.259.335.357,2.609,1.5l2.008,1,1.065,2.13c1.073,2.145,1.248,2.434,1.567,2.556.145.053,2.959-.061,4.625-.19l.464-.038,1.963,1.293c2.191,1.445,2.313,1.514,2.571,1.514a16.543,16.543,0,0,0,2.305-1.4l2.122-1.392,2.5.137c2.4.137,2.51.137,2.739.008.2-.106.434-.525,1.377-2.373l1.141-2.244L35-481.358a23.969,23.969,0,0,0,2.335-1.286c.175-.213.175-.662.023-3.34l-.122-2.008,1.377-2.069c1.21-1.818,1.369-2.1,1.369-2.373,0-.335-.076-.472-1.765-3.035l-.959-1.453.137-2.465c.137-2.32.137-2.48.015-2.731s-.342-.373-2.373-1.415L32.8-504.674l-1.141-2.237c-.928-1.818-1.187-2.267-1.369-2.373-.221-.122-.358-.122-2.739.008l-2.5.129-1.986-1.308c-1.1-.715-2.062-1.339-2.153-1.392A.766.766,0,0,0,20.091-511.749Zm2.541,2.967c1.78,1.164,1.955,1.263,2.275,1.263.19,0,1.263-.053,2.4-.122a17.765,17.765,0,0,1,2.115-.053c.03.03.51.951,1.065,2.039s1.057,2.039,1.126,2.122,1.05.6,2.176,1.164,2.062,1.035,2.069,1.042-.038,1.073-.106,2.358a15.346,15.346,0,0,0-.053,2.541c.046.114.639,1.05,1.316,2.084l1.24,1.887-1.3,1.985-1.3,1.985v.472c0,.251.053,1.354.114,2.434s.107,1.978.1,1.985-.943.487-2.077,1.05-2.107,1.088-2.176,1.164-.578,1.05-1.133,2.153-1.057,2.016-1.111,2.039-1.012-.023-2.145-.084-2.183-.122-2.351-.122c-.274,0-.548.16-2.221,1.255-1.057.7-1.963,1.278-2.016,1.3a18.876,18.876,0,0,1-2.092-1.27l-2-1.316-2.4.129c-1.324.076-2.412.122-2.419.114s-.472-.928-1.027-2.039S9.631-481.3,9.563-481.38a24.28,24.28,0,0,0-2.176-1.164c-1.126-.563-2.069-1.042-2.084-1.057s.03-1.073.1-2.351.107-2.389.084-2.48-.616-1.012-1.3-2.054-1.248-1.924-1.248-1.97.555-.92,1.24-1.955,1.263-1.955,1.3-2.039,0-1.2-.076-2.5-.114-2.351-.1-2.366.966-.494,2.107-1.065c1.712-.86,2.107-1.088,2.229-1.286.076-.137.578-1.1,1.1-2.145s.974-1.909.981-1.925.943.03,2.077.091,2.214.122,2.427.122c.358,0,.456-.053,2.313-1.286a19.538,19.538,0,0,1,2.046-1.27C20.646-510.06,21.567-509.482,22.632-508.782Z" fill="#8967b3" stroke="#8967b3" stroke-width="1"/>
    <path id="Path_23" data-name="Path 23" d="M107.774-414.615a12.219,12.219,0,0,0-9.638,8.855,13.267,13.267,0,0,0-.3,4.732,12.174,12.174,0,0,0,9.547,10.224,14.832,14.832,0,0,0,4.222.122,11.915,11.915,0,0,0,4.96-1.925,12.086,12.086,0,0,0,2.952-17.329,12.123,12.123,0,0,0-7.265-4.6A14.984,14.984,0,0,0,107.774-414.615Zm3.492,1.56a10.483,10.483,0,0,1,8.87,8.338,11.927,11.927,0,0,1,0,4.093,10.5,10.5,0,0,1-5.538,7.3,10.483,10.483,0,0,1-14.819-6.413,9.363,9.363,0,0,1-.4-3.271,9.967,9.967,0,0,1,1-4.184A10.484,10.484,0,0,1,111.266-413.056Z" transform="translate(-89.273 -89.785)" fill="#8967b3" stroke="#8967b3" stroke-width="1"/>
    <path id="Path_24" data-name="Path 24" d="M191.9-305.68c-.19.183-1.559,1.468-3.035,2.86l-2.678,2.526-1.506-1.529c-1.4-1.415-1.529-1.529-1.826-1.567s-.35-.015-.593.228a.712.712,0,0,0-.129.974c.068.114.92,1,1.879,1.986a14.094,14.094,0,0,0,1.94,1.826c.456.084.631-.053,3.583-2.838,3.484-3.279,3.773-3.56,3.834-3.819a.766.766,0,0,0-.776-.966C192.307-306,192.208-305.954,191.9-305.68Z" transform="translate(-167.111 -190.26)" fill="#8967b3" stroke="#8967b3" stroke-width="1"/>
  </g>
</svg>
