<svg xmlns="http://www.w3.org/2000/svg" width="56.349" height="56.164" viewBox="0 0 56.349 56.164">
  <g id="devops" transform="translate(0.589 512.113)">
    <path id="Path_4" data-name="Path 4" d="M107.456-511.587a17.059,17.059,0,0,0-8.111,2.962,20.479,20.479,0,0,0-3.587,3.511,17.282,17.282,0,0,0-1.767,2.908c0,.183-.183.172-.291-.011a1.112,1.112,0,0,0-.894-.388,1.065,1.065,0,0,0-.969,1,11.693,11.693,0,0,0,1.454,3.307c.409.4.872.334,2.477-.4,1.26-.571,1.422-.668,1.594-1.034a.78.78,0,0,0,.075-.776.949.949,0,0,0-1.056-.7c-.56,0-.571.011.162-1.206a14.383,14.383,0,0,1,5.9-5.547,12.951,12.951,0,0,1,6.517-1.476,12.823,12.823,0,0,1,5.17.872,13.037,13.037,0,0,1,5.246,3.511,13.409,13.409,0,0,1,3.953,9.985,13.45,13.45,0,0,1-3.964,10.007,13.951,13.951,0,0,1-7.368,4.1,14.878,14.878,0,0,1-11.192-2.165,19.617,19.617,0,0,1-1.939-1.626,16.774,16.774,0,0,0-4.395-3.156,15.63,15.63,0,0,0-4.115-1.476,22.26,22.26,0,0,0-6.5-.043,13.516,13.516,0,0,0-4.718,1.8,1.048,1.048,0,0,0,.065,1.422c.409.4.883.377,1.874-.075a14.209,14.209,0,0,1,3.63-1.088,17.365,17.365,0,0,1,5.461.151,14.528,14.528,0,0,1,6.872,3.748,17.422,17.422,0,0,0,4.319,3.156,16.856,16.856,0,0,0,13.066.9,16.358,16.358,0,0,0,9.339-8.122,19.61,19.61,0,0,0,1.519-4.524,20.737,20.737,0,0,0-.043-6.215,16.394,16.394,0,0,0-5.3-9.274,16.005,16.005,0,0,0-10.5-4.061C108.566-511.619,107.661-511.608,107.456-511.587Z" transform="translate(-70.319 0)" fill="#fff" stroke="#fff" stroke-width="1"/>
    <path id="Path_5" data-name="Path 5" d="M267.852-457.905c-.366.194-.5.538-.625,1.723a3.193,3.193,0,0,1-.215,1c-.054.022-.409.226-.8.452a4.332,4.332,0,0,1-.819.431,7.586,7.586,0,0,1-.969-.377c-1-.442-1.529-.485-1.874-.14A32.893,32.893,0,0,0,260-450.322c0,.441.3.829,1.12,1.4l.819.582v2.079l-.819.582c-.883.635-1.174,1.045-1.077,1.519a32.611,32.611,0,0,0,2.553,4.427c.345.291.862.237,1.9-.215l.959-.42.517.355a5.6,5.6,0,0,0,.829.474c.323.14.366.258.474,1.4.151,1.594.194,1.616,3.285,1.616,2.607,0,2.887-.054,3.1-.614a6.886,6.886,0,0,0,.237-1.271,3.881,3.881,0,0,1,.194-1c.043-.011.409-.215.819-.452a5.421,5.421,0,0,1,.84-.431,7.758,7.758,0,0,1,.959.377c1.012.442,1.486.474,1.863.129a24.5,24.5,0,0,0,2.542-4.556c0-.442-.248-.732-1.174-1.39l-.765-.539V-447.3l.011-1.023.808-.592c.948-.689,1.12-.894,1.12-1.347a24.85,24.85,0,0,0-2.542-4.556c-.377-.334-.851-.3-1.863.14-.991.442-1.013.442-1.389.172a7.64,7.64,0,0,0-.776-.442c-.269-.129-.5-.248-.506-.259s-.075-.452-.14-.98c-.14-1.2-.269-1.53-.657-1.723A21.452,21.452,0,0,0,267.852-457.905Zm3.932,2.337c.032.194.086.592.118.883.118.862.215.991,1.282,1.519a13.076,13.076,0,0,1,1.508.862c.636.463.916.474,1.842.054a4.457,4.457,0,0,1,.851-.323c.075,0,.215.162.312.345s.345.657.549,1.013l.388.657-.625.442c-1.088.754-1.034.646-1.056,2.747a6.658,6.658,0,0,0,.129,2.079,4.263,4.263,0,0,0,.84.743l.7.517-.377.657c-.2.366-.452.818-.549,1s-.237.355-.3.355a4.2,4.2,0,0,1-.84-.323,1.581,1.581,0,0,0-2.068.162,10.829,10.829,0,0,1-1.465.851,3.4,3.4,0,0,0-.926.571,3.333,3.333,0,0,0-.194.851c-.032.345-.1.765-.118.926l-.065.3h-1.174c-.862,0-1.174-.032-1.174-.14a9.5,9.5,0,0,0-.323-1.917,3.33,3.33,0,0,0-1-.625,9.569,9.569,0,0,1-1.465-.862c-.722-.539-1.023-.56-2-.119a5.871,5.871,0,0,1-.808.323,2.475,2.475,0,0,1-.5-.679c-.215-.366-.485-.819-.593-1l-.2-.334.571-.388c1.131-.786,1.1-.679,1.109-2.865a9.044,9.044,0,0,0-.108-2.079,8.794,8.794,0,0,0-.829-.689l-.711-.539.517-.9a5.84,5.84,0,0,1,.657-1c.086-.054.42.032.872.237,1,.452,1.293.431,2.014-.118a10.732,10.732,0,0,1,1.476-.851,3.332,3.332,0,0,0,1-.625,9.494,9.494,0,0,0,.323-1.928c0-.1.312-.129,1.185-.129h1.174Z" transform="translate(-231.91 -47.768)" fill="#fff" stroke="#fff" stroke-width="1"/>
    <path id="Path_6" data-name="Path 6" d="M326.091-392.708a3.762,3.762,0,0,0-2.456,2.122,3.959,3.959,0,0,0,.011,3.038,4.2,4.2,0,0,0,1.9,1.9,2.82,2.82,0,0,0,1.53.291,3.5,3.5,0,0,0,2.574-.969,3.9,3.9,0,0,0,.6-4.782A3.912,3.912,0,0,0,326.091-392.708Zm1.691,2.187a1.556,1.556,0,0,1,.873,1.325,1.4,1.4,0,0,1-.829,1.486,1.4,1.4,0,0,1-1.487.032,1.136,1.136,0,0,1-.668-.668,1.371,1.371,0,0,1,0-1.433A1.576,1.576,0,0,1,327.782-390.522Z" transform="translate(-288.425 -105.985)" fill="#fff" stroke="#fff" stroke-width="1"/>
    <path id="Path_7" data-name="Path 7" d="M42.855-265.582a.815.815,0,0,0-.355.765,1.045,1.045,0,0,0,1.95.528,1,1,0,0,0-.388-1.443A.95.95,0,0,0,42.855-265.582Z" transform="translate(-37.838 -219.259)" fill="#fff" stroke="#fff" stroke-width="1"/>
    <path id="Path_8" data-name="Path 8" d="M64-253.838c-.355.194-.5.549-.582,1.454-.108,1.185-.129,1.239-.625,1.486-.248.129-.636.334-.851.463l-.388.237-.916-.388c-1.013-.442-1.551-.5-1.9-.215a33.408,33.408,0,0,0-2.553,4.438c-.1.463.151.8,1.066,1.5l.851.625v2.014l-.862.625c-.894.657-1.174,1.066-1.056,1.54a36.221,36.221,0,0,0,2.574,4.395c.355.291.9.226,1.9-.226l.916-.409.743.463a9.647,9.647,0,0,0,.851.5,4.071,4.071,0,0,1,.237,1.152c.129,1.045.151,1.142.474,1.422l.345.312h2.434c2.661,0,2.919-.054,3.156-.614a11.633,11.633,0,0,0,.334-2.09c0-.086.183-.248.409-.355a8.923,8.923,0,0,0,.84-.5l.452-.3.937.42c1.088.485,1.54.528,1.928.183a26.035,26.035,0,0,0,2.542-4.535c0-.474-.151-.668-1.077-1.368l-.862-.657v-.991l.011-.991.808-.592c.948-.689,1.12-.894,1.12-1.346a24.165,24.165,0,0,0-2.542-4.556c-.377-.334-.808-.3-1.907.162-.937.388-.969.388-1.239.2-.162-.1-.539-.312-.84-.463-.614-.312-.549-.129-.754-1.917a1.288,1.288,0,0,0-.377-.937l-.291-.3H66.786A9.839,9.839,0,0,0,64-253.838Zm3.932,2.176c.022.108.075.528.118.926a1.51,1.51,0,0,0,1.109,1.519,5.946,5.946,0,0,1,1.066.582c.334.215.732.485.883.582.4.269.743.237,1.573-.129a4.78,4.78,0,0,1,.84-.323c.075,0,.2.14.3.3s.355.625.571,1.013l.388.7-.636.452c-1.066.743-1.034.668-1.034,2.833a5.956,5.956,0,0,0,.151,2.068,8.525,8.525,0,0,0,.829.679l.679.5-.377.657c-.2.366-.452.819-.549,1s-.226.355-.28.355a5.646,5.646,0,0,1-.829-.323c-1.013-.442-1.325-.42-2.047.129a9.977,9.977,0,0,1-1.454.84c-.948.442-1.066.592-1.185,1.465-.032.291-.086.689-.118.873l-.054.355H66.7c-.872,0-1.185-.032-1.185-.14a8.735,8.735,0,0,0-.334-1.917,3.192,3.192,0,0,0-.991-.636,9.568,9.568,0,0,1-1.465-.851c-.722-.549-1.013-.56-2.047-.1-.463.2-.808.3-.872.237-.043-.054-.334-.517-.625-1.034l-.539-.937.42-.28a7.61,7.61,0,0,0,.84-.646l.409-.377-.022-1.906a16.794,16.794,0,0,0-.1-2.09,3.683,3.683,0,0,0-.776-.679,2.643,2.643,0,0,1-.689-.6,10.3,10.3,0,0,1,1.174-1.939,5.49,5.49,0,0,1,.851.323c1.013.431,1.249.42,1.96-.129a10.712,10.712,0,0,1,1.476-.851,3.332,3.332,0,0,0,1-.625,9.5,9.5,0,0,0,.323-1.928c0-.1.312-.129,1.174-.129C67.723-251.846,67.874-251.824,67.928-251.663Z" transform="translate(-50.028 -229.861)" fill="#fff" stroke="#fff" stroke-width="1"/>
    <path id="Path_9" data-name="Path 9" d="M122.138-188.675a3.821,3.821,0,0,0-2.391,2.111,4.068,4.068,0,0,0-.011,2.962,3.8,3.8,0,0,0,5.192,1.874,3.781,3.781,0,0,0-.108-6.732A4.2,4.2,0,0,0,122.138-188.675Zm1.993,2.294a1.613,1.613,0,0,1-.151,2.693,1.514,1.514,0,0,1-2.014-.388,1.578,1.578,0,0,1,.409-2.359A1.732,1.732,0,0,1,124.13-186.38Z" transform="translate(-106.511 -288.034)" fill="#fff" stroke="#fff" stroke-width="1"/>
    <path id="Path_10" data-name="Path 10" d="M2.367-229.352c-.28.14-.442.377-.765,1.056A16.788,16.788,0,0,0,2.96-211.989a20.5,20.5,0,0,0,3.792,3.953,16.592,16.592,0,0,0,14.229,2.693,16.471,16.471,0,0,0,10.33-8.122l.452-.883.323.28a1.025,1.025,0,0,0,1.67-.442c.172-.409.183-.366-.625-2.241-.571-1.3-.883-1.68-1.422-1.68a16.809,16.809,0,0,0-3.318,1.519,1.143,1.143,0,0,0,.1,1.39c.259.312.334.334.8.3l.517-.032-.431.808a13.893,13.893,0,0,1-2.359,3.167A13.819,13.819,0,0,1,18.126-207a15.361,15.361,0,0,1-7.971-1.433A15.286,15.286,0,0,1,3.606-215.2a13.96,13.96,0,0,1-1.336-5.493,14.139,14.139,0,0,1,1.217-6.538c.442-1.034.474-1.163.366-1.5A1.054,1.054,0,0,0,2.367-229.352Z" transform="translate(0 -251.751)" fill="#fff" stroke="#fff" stroke-width="1"/>
  </g>
</svg>
