<svg xmlns="http://www.w3.org/2000/svg" width="58.108" height="68.208" viewBox="0 0 58.108 68.208">
  <g id="product_design" transform="translate(-55.795 491.263)">
    <path id="Path_11" data-name="Path 11" d="M249.316-490.574c-.3.316-.316.459-.316,2.871,0,2.354.029,2.57.287,2.828a1.149,1.149,0,0,0,.718.287,1.149,1.149,0,0,0,.718-.287c.273-.273.287-.474.287-2.842,0-2.5-.014-2.57-.33-2.871A.911.911,0,0,0,249.316-490.574Z" transform="translate(-165.157 0)" fill="#fff" stroke="#fff" stroke-width="0.75"/>
    <path id="Path_12" data-name="Path 12" d="M113.718-434.364a1,1,0,0,0-.718.962c0,.388.258.7,1.838,2.268a9.384,9.384,0,0,0,2.139,1.823,1.163,1.163,0,0,0,1.048-1.034c0-.373-.273-.718-1.68-2.139C114.737-434.12,114.177-434.508,113.718-434.364Z" transform="translate(-48.681 -48.385)" fill="#fff" stroke="#fff" stroke-width="0.75"/>
    <path id="Path_13" data-name="Path 13" d="M367.647-434.09a13.854,13.854,0,0,0-2.024,1.823c-1.364,1.393-1.622,1.723-1.622,2.1a1.043,1.043,0,0,0,.316.746c.617.56.9.416,2.871-1.536,1.579-1.565,1.838-1.881,1.838-2.268A.934.934,0,0,0,367.647-434.09Z" transform="translate(-263.647 -48.559)" fill="#fff" stroke="#fff" stroke-width="0.75"/>
    <path id="Path_14" data-name="Path 14" d="M138.375-427.793a19.457,19.457,0,0,0-7.035,2.01,19.733,19.733,0,0,0-10.509,13.638,18.125,18.125,0,0,0-.244,4.091,13.041,13.041,0,0,0,.445,4.522c.947,3.589,2.039,5.5,5.427,9.475a14.633,14.633,0,0,1,2.512,5.025,16,16,0,0,1,.373,3.23c.043,1.105.1,2.211.144,2.455a3.357,3.357,0,0,0,1.565,2.082l.646.345v4.293a37.238,37.238,0,0,0,.158,4.838,3.376,3.376,0,0,0,1.766,1.938c.732.344.747.344,6.4.344s5.671,0,6.4-.344a3.377,3.377,0,0,0,1.766-1.938,37.371,37.371,0,0,0,.158-4.852v-4.321l.445-.172a3.535,3.535,0,0,0,1.579-1.651,5.459,5.459,0,0,0,.273-2.383,12.979,12.979,0,0,1,3.718-9.82,19.874,19.874,0,0,0,4.967-10.25,24.611,24.611,0,0,0-.144-7.049,19.535,19.535,0,0,0-5.57-10.006,18.987,18.987,0,0,0-9.2-5.068,28.755,28.755,0,0,0-4.608-.56Zm4.393,2.153a17.571,17.571,0,0,1,9.6,4.9,17.314,17.314,0,0,1,5.168,12.476,17.244,17.244,0,0,1-4.608,11.844,15.354,15.354,0,0,0-3.819,6.79,14.794,14.794,0,0,0-.431,3.747c-.086,2.225-.1,2.383-.416,2.7-.273.258-.488.33-1.134.33h-.79v-22.956l-2.8-5.6c-2.986-6-2.943-5.929-3.876-5.7-.316.086-.775.9-3.158,5.7l-2.8,5.6v22.956h-.79c-.646,0-.861-.072-1.134-.33-.3-.3-.33-.474-.416-2.613a14.8,14.8,0,0,0-1.464-6.518,15.967,15.967,0,0,0-2.771-4.063,18.079,18.079,0,0,1-4.293-8.125,23.338,23.338,0,0,1-.115-6.733,17.638,17.638,0,0,1,7.566-11.629A17.469,17.469,0,0,1,142.768-425.639ZM140.5-413.078a5.507,5.507,0,0,1,.388.933c0,.086-.388.144-.861.144s-.861-.057-.861-.144a6.9,6.9,0,0,1,.861-1.723A3.31,3.31,0,0,1,140.5-413.078Zm2.469,4.953a18.8,18.8,0,0,1,.933,2.01c0,.3-.833.129-1.364-.287a2.378,2.378,0,0,0-.675-.431,2.064,2.064,0,0,0-.948.531,1.4,1.4,0,0,1-1.852-.086c-.474-.5-.933-.5-1.536-.029-.546.431-1.378.617-1.378.3a18.8,18.8,0,0,1,.933-2.01l.933-1.866h4.02ZM137.3-393.453v10.595h-1.579v-10.523c0-5.8.029-10.566.057-10.595a3.4,3.4,0,0,1,.79-.058h.732Zm3.446,0v10.595h-1.436v-21.176h1.436Zm3.56.029.029,10.566h-1.579v-21.176l.761.014.747.029Zm2.039,14.442v1.866H133.709v-3.733h12.633Zm0,5.255c0,1.321-.014,1.392-.416,1.794l-.416.416H134.542l-.416-.416c-.4-.4-.416-.474-.416-1.794v-1.378h12.633Z" transform="translate(-55.178 -53.923)" fill="#fff" stroke="#fff" stroke-width="0.75"/>
    <path id="Path_15" data-name="Path 15" d="M56.437-297.627a.818.818,0,0,0,.057,1.278c.345.359.388.359,2.843.359,2.225,0,2.541-.029,2.843-.258a1.065,1.065,0,0,0,.057-1.464c-.244-.273-.431-.287-2.886-.287H56.724Z" transform="translate(0 -165.196)" fill="#fff" stroke="#fff" stroke-width="0.75"/>
    <path id="Path_16" data-name="Path 16" d="M411.643-297.612a.92.92,0,0,0,.172,1.364c.258.23.617.258,2.8.258,2.455,0,2.5,0,2.843-.359a.818.818,0,0,0,.057-1.278l-.287-.373h-5.283Z" transform="translate(-304.255 -165.196)" fill="#fff" stroke="#fff" stroke-width="0.75"/>
    <path id="Path_17" data-name="Path 17" d="M114.766-181.234c-1.522,1.522-1.766,1.823-1.766,2.225a1.007,1.007,0,0,0,.962,1.034c.546,0,4.063-3.474,4.063-4.02a.92.92,0,0,0-.976-1C116.575-183,116.374-182.842,114.766-181.234Z" transform="translate(-48.681 -263.687)" fill="#fff" stroke="#fff" stroke-width="0.75"/>
    <path id="Path_18" data-name="Path 18" d="M364.244-182.742a1.116,1.116,0,0,0-.244.689c0,.359.3.732,1.838,2.254,1.436,1.421,1.938,1.823,2.225,1.823a1.007,1.007,0,0,0,.962-1.034c0-.4-.244-.7-1.766-2.225-1.594-1.594-1.809-1.766-2.268-1.766A1.04,1.04,0,0,0,364.244-182.742Z" transform="translate(-263.647 -263.687)" fill="#fff" stroke="#fff" stroke-width="0.75"/>
  </g>
</svg>
