<svg xmlns="http://www.w3.org/2000/svg" width="51.465" height="51.493" viewBox="0 0 51.465 51.493">
  <g id="python" transform="translate(-56 456.217)">
    <path id="Path_19" data-name="Path 19" d="M75.484-455.612a5.954,5.954,0,0,0-2.492,1.467,6.561,6.561,0,0,0-.911,1.4l-.4.847-.038,4.136-.038,4.136-5.654.038-5.654.038-.847.4a4.861,4.861,0,0,0-2.479,2.416l-.468.961v16.594l.468.961a4.861,4.861,0,0,0,2.479,2.416l.847.4,3.63.038,3.63.038.038,5.16.038,5.148.468.961a4.861,4.861,0,0,0,2.479,2.416l.847.4H87.993l.847-.4a4.861,4.861,0,0,0,2.479-2.416l.468-.961.038-4.136.038-4.148,5.654-.038,5.654-.038.847-.4a4.861,4.861,0,0,0,2.479-2.416l.468-.961v-16.594l-.468-.961a4.861,4.861,0,0,0-2.479-2.416l-.847-.4-3.63-.038-3.63-.038-.038-5.16-.038-5.148-.468-.961a4.861,4.861,0,0,0-2.479-2.416l-.847-.4-8.031-.025C79.418-455.726,75.763-455.676,75.484-455.612Zm16.29,2.036a3.756,3.756,0,0,1,1.948,1.948c.215.734.215,17.315,0,18.036a3.744,3.744,0,0,1-1.581,1.821c-.455.228-1.024.24-10.612.3l-10.118.063-.961.468a4.86,4.86,0,0,0-2.416,2.479l-.4.847-.038,3.124-.051,3.137H64.316a23.486,23.486,0,0,1-3.756-.152,3.757,3.757,0,0,1-1.948-1.948c-.215-.746-.215-15.291,0-16.037a3.757,3.757,0,0,1,1.948-1.948c.392-.114,3.364-.152,12.053-.152H84.148l.3-.316a.986.986,0,0,0,.316-.7.986.986,0,0,0-.316-.7l-.3-.316H73.638v-3.744a28.777,28.777,0,0,1,.152-4.275,4.033,4.033,0,0,1,1.872-1.935C76.319-453.766,91.079-453.778,91.775-453.576ZM102.9-439.41a3.757,3.757,0,0,1,1.948,1.948c.215.746.215,15.291,0,16.038a3.757,3.757,0,0,1-1.948,1.948c-.392.114-3.364.152-12.053.152H79.317l-.3.316a.929.929,0,0,0,0,1.391l.3.316h10.51v3.744a28.78,28.78,0,0,1-.152,4.275,3.756,3.756,0,0,1-1.948,1.948c-.746.215-15.291.215-16.037,0a3.756,3.756,0,0,1-1.948-1.948c-.215-.734-.215-17.315,0-18.036a3.744,3.744,0,0,1,1.581-1.821c.455-.228,1.024-.24,10.6-.3l10.118-.063.847-.4a4.861,4.861,0,0,0,2.479-2.416l.468-.961.038-3.137.051-3.137h3.225A23.479,23.479,0,0,1,102.9-439.41Z" transform="translate(0 0)" fill="#fff" stroke="#fff" stroke-width="1"/>
    <path id="Path_20" data-name="Path 20" d="M217.374-415.732a2,2,0,0,0-.582,3.25,2,2,0,0,0,3.377-1.846A2.056,2.056,0,0,0,217.374-415.732Z" transform="translate(-139.499 -34.784)" fill="#fff" stroke="#fff" stroke-width="1"/>
    <path id="Path_21" data-name="Path 21" d="M265.374-127.85a2,2,0,0,0-.582,3.25,1.907,1.907,0,0,0,2.808,0A2,2,0,0,0,265.374-127.85Z" transform="translate(-181.428 -286.239)" fill="#fff" stroke="#fff" stroke-width="1"/>
  </g>
</svg>
