<svg xmlns="http://www.w3.org/2000/svg" width="50.526" height="50.643" viewBox="0 0 50.526 50.643">
  <g id="quality_assurance" transform="translate(-0.639 512.422)">
    <path id="Path_22" data-name="Path 22" d="M25.305-511.7c-.213.116-1.455.921-2.754,1.784l-2.357,1.552-.5-.039c-1.978-.165-5.78-.32-5.984-.242a1.291,1.291,0,0,0-.436.31c-.116.126-.824,1.455-1.571,2.948l-1.358,2.716-2.764,1.387c-3.006,1.5-3.278,1.7-3.259,2.328,0,.194.078,1.658.165,3.259l.165,2.89L2.922-490.18a26.033,26.033,0,0,0-1.784,2.938c-.068.4-.029.466,1.872,3.356l1.62,2.454L4.464-478.2c-.165,3-.165,3.239-.01,3.472.213.33.427.456,3.326,1.91l2.56,1.28,1.358,2.715c1.367,2.735,1.59,3.1,2,3.259.184.068,3.773-.078,5.9-.243l.592-.049,2.5,1.649c2.793,1.843,2.948,1.93,3.278,1.93a21.092,21.092,0,0,0,2.939-1.784l2.706-1.775,3.191.174c3.055.175,3.2.175,3.491.01.252-.136.553-.669,1.755-3.026L41.5-471.54l2.812-1.416a30.556,30.556,0,0,0,2.977-1.639c.223-.272.223-.844.029-4.257l-.155-2.56,1.755-2.638c1.542-2.318,1.746-2.677,1.746-3.026,0-.427-.1-.6-2.25-3.87L47.194-492.8l.175-3.142c.175-2.958.175-3.161.019-3.482s-.436-.475-3.026-1.8L41.5-502.681l-1.455-2.851c-1.183-2.318-1.513-2.89-1.746-3.026-.281-.155-.456-.155-3.491.01l-3.191.165-2.531-1.668c-1.4-.912-2.628-1.707-2.745-1.775A.976.976,0,0,0,25.305-511.7Zm3.239,3.782c2.269,1.484,2.492,1.61,2.9,1.61.242,0,1.61-.068,3.055-.155a22.656,22.656,0,0,1,2.7-.068c.039.039.65,1.212,1.358,2.6s1.348,2.6,1.435,2.706,1.338.766,2.774,1.484,2.628,1.319,2.638,1.329-.048,1.367-.136,3.006a19.564,19.564,0,0,0-.068,3.239c.058.145.815,1.338,1.678,2.657l1.581,2.405L46.8-484.575l-1.658,2.531v.6c0,.32.068,1.726.145,3.1s.136,2.521.126,2.531-1.2.621-2.648,1.339-2.686,1.387-2.774,1.484-.737,1.338-1.445,2.745-1.348,2.57-1.416,2.6-1.29-.029-2.735-.107-2.783-.155-3-.155c-.349,0-.7.2-2.832,1.6-1.348.892-2.5,1.629-2.57,1.658a24.076,24.076,0,0,1-2.667-1.62l-2.551-1.678-3.055.165c-1.687.1-3.074.155-3.084.145s-.6-1.183-1.309-2.6-1.358-2.648-1.445-2.754a30.948,30.948,0,0,0-2.774-1.484c-1.435-.718-2.638-1.329-2.657-1.348s.039-1.367.126-3,.136-3.045.107-3.162-.786-1.29-1.658-2.619-1.59-2.453-1.59-2.512.708-1.173,1.581-2.492,1.61-2.492,1.658-2.6,0-1.532-.1-3.181-.145-3-.126-3.016,1.232-.63,2.686-1.358c2.182-1.1,2.686-1.387,2.842-1.639.1-.175.737-1.406,1.406-2.735s1.241-2.434,1.251-2.453,1.2.039,2.648.116,2.822.155,3.094.155c.456,0,.582-.068,2.948-1.639a24.913,24.913,0,0,1,2.609-1.619C26.013-509.547,27.187-508.81,28.544-507.918Z" transform="translate(0)" fill="#fff" stroke="#fff" stroke-width="1"/>
    <path id="Path_23" data-name="Path 23" d="M110.531-414.579A15.577,15.577,0,0,0,98.244-403.29a16.914,16.914,0,0,0-.378,6.032,15.52,15.52,0,0,0,12.171,13.034,18.908,18.908,0,0,0,5.382.155,15.19,15.19,0,0,0,6.323-2.454,15.408,15.408,0,0,0,3.763-22.092,15.455,15.455,0,0,0-9.262-5.867A19.1,19.1,0,0,0,110.531-414.579Zm4.451,1.988a13.364,13.364,0,0,1,11.308,10.629,15.2,15.2,0,0,1,0,5.218,13.382,13.382,0,0,1-7.06,9.3,13.364,13.364,0,0,1-18.892-8.176,11.936,11.936,0,0,1-.5-4.17,12.706,12.706,0,0,1,1.28-5.334A13.365,13.365,0,0,1,114.983-412.591Z" transform="translate(-87.253 -87.753)" fill="#fff" stroke="#fff" stroke-width="1"/>
    <path id="Path_24" data-name="Path 24" d="M194.619-305.593c-.242.233-1.988,1.872-3.87,3.646l-3.414,3.22-1.92-1.949c-1.784-1.8-1.949-1.949-2.328-2s-.446-.019-.756.291a.908.908,0,0,0-.165,1.241c.087.145,1.173,1.28,2.4,2.531a17.969,17.969,0,0,0,2.473,2.328c.582.107.8-.068,4.568-3.617,4.442-4.18,4.81-4.539,4.888-4.868A.977.977,0,0,0,195.5-306C195.142-306,195.016-305.942,194.619-305.593Z" transform="translate(-163.33 -185.955)" fill="#fff" stroke="#fff" stroke-width="1"/>
  </g>
</svg>
