<svg xmlns="http://www.w3.org/2000/svg" width="46.11" height="47.006" viewBox="0 0 46.11 47.006">
  <g id="ui_ux_design" transform="translate(-5.936 512.592)">
    <path id="Path_25" data-name="Path 25" d="M43.835-511.9c-.189.189-.234.341-.306,1.051-.135,1.366-1.1,2.813-3.594,5.409a10.6,10.6,0,0,0-2.525,3.415A7.953,7.953,0,0,0,37-497.139a6.022,6.022,0,0,0,2.345,3.388,1.447,1.447,0,0,1,.449.368c0,.126-.306.216-1.3.4a17.492,17.492,0,0,1-4.484.054c-2.381-.449-4.142-1.546-4.879-3.046-1.2-2.426.377-5.436,3.972-7.584a4.122,4.122,0,0,0,2.255-2.633,3.916,3.916,0,0,0-1.923-4.34,5.072,5.072,0,0,0-2.219-.557,22.165,22.165,0,0,0-12.086,1.842,15.954,15.954,0,0,0-2.489,1.411.7.7,0,0,0-.027.961c.27.27.647.225,1.3-.18a20.2,20.2,0,0,1,7.575-2.642,31.113,31.113,0,0,1,5.787-.009,3.822,3.822,0,0,1,1.519.368,2.427,2.427,0,0,1,1.285,2.237,2.128,2.128,0,0,1-1.033,1.941c-.27.171-.9.593-1.4.926a9.663,9.663,0,0,0-3.936,4.637,6.824,6.824,0,0,0-.234,3.064,6.5,6.5,0,0,0,4.5,4.484,14.293,14.293,0,0,0,7.224.315,3.58,3.58,0,0,1,.647-.108c.045.054.315,4.484.279,4.592a.5.5,0,0,1-.323.189,4.23,4.23,0,0,0-1.653,1.141,4.985,4.985,0,0,0-.575.935,2.7,2.7,0,0,0-.252,1.519,2.656,2.656,0,0,0,.288,1.59,4.861,4.861,0,0,0,.71,1.06,4.393,4.393,0,0,0,2,1.123c.35.054.359.063.4.521.054.431.5,6.82.5,7.063a14.535,14.535,0,0,1-3.1,1.95,20.134,20.134,0,0,1-9.3,2.139,19.729,19.729,0,0,1-8.671-1.86,21.014,21.014,0,0,1-12.185-16.6,26.381,26.381,0,0,1,.045-5.391,21.789,21.789,0,0,1,3.406-8.986,22.09,22.09,0,0,1,3.864-4.322,4.148,4.148,0,0,0,.674-.674.65.65,0,0,0-.629-.935c-.485,0-2.543,1.923-3.945,3.684a22.832,22.832,0,0,0-4.726,11.007,29.359,29.359,0,0,0,0,6.155,22.455,22.455,0,0,0,19.023,19.112,29.441,29.441,0,0,0,6.29,0,27.013,27.013,0,0,0,4.313-1.069,27.05,27.05,0,0,0,4.268-2.031c.476-.3.737-.413.773-.35A8.468,8.468,0,0,1,41.454-469c.072,1.3.171,1.644.647,2.13,1.2,1.24,3.963.935,4.646-.512a31.183,31.183,0,0,0,.512-4.879l.359-4.556.476-.809a21.949,21.949,0,0,0,3.118-10.971,5.393,5.393,0,0,0-.539-2.777,6.853,6.853,0,0,0-1.366-1.887l-.314-.27.683-.728A6.762,6.762,0,0,0,51.3-497.13a9.7,9.7,0,0,0-.521-5.607,28.975,28.975,0,0,0-5.706-8.788C44.482-512.136,44.168-512.235,43.835-511.9Zm2.148,3.6a20.782,20.782,0,0,1,4.008,7.728,9.088,9.088,0,0,1,0,3.082,5.639,5.639,0,0,1-1.375,2.372l-.575.584-3.783-.063c-4.178-.072-3.963-.036-4.673-.7a5.53,5.53,0,0,1-1.069-5.8,7.284,7.284,0,0,1,2.031-2.974,35.532,35.532,0,0,0,2.947-3.379,10.192,10.192,0,0,0,1.177-2.219l.063-.207.225.27C45.084-509.467,45.543-508.874,45.983-508.3Zm1.537,15.15c0,.144-.44,5.76-.494,6.29l-.063.566H41.589v-.252c0-.135-.1-1.635-.225-3.343s-.225-3.154-.225-3.217c0-.081.7-.108,3.19-.108C46.082-493.212,47.519-493.185,47.519-493.149Zm1.878,2.3a4.926,4.926,0,0,1,.422,2.938,18.584,18.584,0,0,1-.683,4.367,22.057,22.057,0,0,1-1.222,3.334c-.018-.018.171-2.6.413-5.733s.449-5.742.449-5.787C48.786-491.882,49.119-491.406,49.4-490.849Zm-8.95,7.431c.081,1.249.135,2.291.117,2.318-.081.081-.467-.072-.854-.323a2.441,2.441,0,0,1-.35-3.756c.4-.368.719-.584.836-.548A15.39,15.39,0,0,1,40.448-483.418Zm6.4-.97c-.036.315-.332,4.106-.674,8.429s-.638,7.934-.674,8.015c-.108.27-.674.476-1.3.467-.656,0-1.132-.2-1.258-.512-.045-.108-.323-3.819-.62-8.24s-.566-8.195-.593-8.384l-.045-.332H46.9Z" transform="translate(0 0)" fill="#fff" stroke="#fff" stroke-width="1"/>
    <path id="Path_26" data-name="Path 26" d="M92.106-410.712a4.532,4.532,0,0,0-2.588,2.121,4.478,4.478,0,0,0,2,6.227,3.021,3.021,0,0,0,1.734.422,4.1,4.1,0,0,0,2.525-.584,4.555,4.555,0,0,0,1.411-6.425A4.7,4.7,0,0,0,95.17-410.6,5.04,5.04,0,0,0,92.106-410.712Zm2.714,1.447a3.682,3.682,0,0,1,1.528,1.572,3.528,3.528,0,0,1,.072,2.372,3.529,3.529,0,0,1-1.6,1.752,2.335,2.335,0,0,1-1.366.252,2.123,2.123,0,0,1-1.42-.306,3.134,3.134,0,0,1-1.168-4.556,3.1,3.1,0,0,1,1.474-1.168A3.253,3.253,0,0,1,94.82-409.265Z" transform="translate(-75.048 -92.097)" fill="#fff" stroke="#fff" stroke-width="1"/>
    <path id="Path_27" data-name="Path 27" d="M56.908-290.527a4.564,4.564,0,0,0-3.594,3.433,4.564,4.564,0,0,0,3.325,5.418,4.553,4.553,0,0,0,5.113-2.4,4.489,4.489,0,0,0-2.615-6.281A5.436,5.436,0,0,0,56.908-290.527Zm1.995,1.546a3.158,3.158,0,0,1,1.9,3.433,3.21,3.21,0,0,1-1.86,2.372,3.152,3.152,0,0,1-2.489-.009,3.366,3.366,0,0,1-1.626-1.626,3.175,3.175,0,0,1-.018-2.5A3.152,3.152,0,0,1,58.9-288.981Z" transform="translate(-42.5 -201.607)" fill="#fff" stroke="#fff" stroke-width="1"/>
    <path id="Path_28" data-name="Path 28" d="M127.422-185.777a4.375,4.375,0,0,0-2.7,2.3,4.042,4.042,0,0,0-.422,2.8,4.445,4.445,0,0,0,4.421,3.711,4.217,4.217,0,0,0,3.208-1.339,4.3,4.3,0,0,0,1.312-3.424,4.513,4.513,0,0,0-3.289-4.079A5.33,5.33,0,0,0,127.422-185.777Zm2.651,1.474a3.136,3.136,0,0,1,1.716,3.576,3.135,3.135,0,0,1-3.3,2.4,3.088,3.088,0,0,1-2.624-1.851,3.106,3.106,0,0,1,.288-3.1A3.183,3.183,0,0,1,130.073-184.3Z" transform="translate(-107.129 -296.841)" fill="#fff" stroke="#fff" stroke-width="1"/>
    <path id="Path_29" data-name="Path 29" d="M248.283-156.547a5.477,5.477,0,0,0-1.15.4,4.508,4.508,0,0,0-1.644,6.811,4.544,4.544,0,0,0,5.535,1.321c.827-.4,1.213-.755,1.213-1.132a.634.634,0,0,0-.629-.665,2.073,2.073,0,0,0-.8.341,3.128,3.128,0,0,1-4.088-.53,2.787,2.787,0,0,1-.755-2.237,2.846,2.846,0,0,1,.881-2.067,2.846,2.846,0,0,1,2.067-.881,2.6,2.6,0,0,1,1.276.162,3.3,3.3,0,0,1,1.743,1.635,4.048,4.048,0,0,1,.216,2.21c-.045.467.2.764.62.764.548,0,.818-.548.818-1.662A4.568,4.568,0,0,0,248.283-156.547Z" transform="translate(-216.668 -323.537)" fill="#fff" stroke="#fff" stroke-width="1"/>
  </g>
</svg>
