<svg xmlns="http://www.w3.org/2000/svg" width="58.823" height="52.694" viewBox="0 0 58.823 52.694">
  <g id="web" transform="translate(0.236 484.143)">
    <path id="Path_30" data-name="Path 30" d="M3.562-483.615a4.491,4.491,0,0,0-3.325,3.529c-.079.375-.113,3.325-.091,8.682l.034,8.1.261.658a4.608,4.608,0,0,0,2.644,2.61c.613.25.635.25,9.476.284l8.874.034-.272.829a14.907,14.907,0,0,0,.885,10.565,14.635,14.635,0,0,0,6.582,6.7,14.625,14.625,0,0,0,13.119.136l.953-.454,4.721,4.709c2.6,2.587,4.914,4.812,5.129,4.948a3.818,3.818,0,0,0,2.519.374,3.418,3.418,0,0,0,2.009-1.044,3.419,3.419,0,0,0,1.044-2.009,3.807,3.807,0,0,0-.374-2.519c-.136-.215-1.192-1.35-2.349-2.519-1.611-1.634-2.19-2.145-2.463-2.2a1.115,1.115,0,0,0-1.294,1.135c0,.42.1.533,2.088,2.553,1.748,1.77,2.1,2.179,2.168,2.542a1.373,1.373,0,0,1-.443,1.4,1.385,1.385,0,0,1-1.407.443c-.363-.068-.987-.647-4.936-4.585L44.6-443.227l1.055-1.067a14.32,14.32,0,0,0,4.358-9.873,14.632,14.632,0,0,0-.522-4.574,5.725,5.725,0,0,1-.227-.84,9.576,9.576,0,0,1,2.69-.17c2.5-.034,2.746-.068,3.359-.306a4.6,4.6,0,0,0,2.655-2.78c.193-.533.2-1.192.2-8.976v-8.4l-.261-.658a4.614,4.614,0,0,0-2.792-2.655c-.545-.193-1.543-.2-18.486-.2H18.712l-.329.374a.927.927,0,0,0,0,1.407l.329.375,17.862.057,17.862.057.42.284a3.447,3.447,0,0,1,.738.726l.306.443v16.5l-.306.443a3.441,3.441,0,0,1-.738.726c-.409.284-.42.284-3.552.318l-3.132.034-.67-1a16.041,16.041,0,0,0-3.552-3.666,18.44,18.44,0,0,0-3.62-1.929c-.079,0-.148-.034-.136-.091s.374-.851.828-1.782l.817-1.7,1.055,2.009c1.055,2.031,1.4,2.474,1.907,2.474.635,0,.919-.3,1.577-1.68,2.6-5.39,2.644-5.493,2.224-5.992a1.062,1.062,0,0,0-1.543-.261,11.558,11.558,0,0,0-1.271,2.236l-.965,2.009-1.033-1.986a20.91,20.91,0,0,0-1.226-2.19,1.268,1.268,0,0,0-.647-.272c-.692-.091-.987.272-2.031,2.485-.5,1.044-.919,1.9-.953,1.9s-.511-.9-1.078-2a7.108,7.108,0,0,0-1.362-2.213,1.069,1.069,0,0,0-1.645.9,10.917,10.917,0,0,0,1.248,2.826c.692,1.339,1.248,2.44,1.248,2.451s-.931.046-2.077.046a12.586,12.586,0,0,0-3,.238,8.928,8.928,0,0,1-.942.193c0-.023.567-1.226,1.271-2.678,1.384-2.894,1.487-3.268,1.01-3.768a1.089,1.089,0,0,0-1.714.091c-.091.136-.556,1.044-1.021,2.02s-.9,1.816-.931,1.85a14.623,14.623,0,0,1-1.1-1.963c-1.078-2.077-1.339-2.406-1.941-2.406s-.862.318-1.872,2.428l-.987,2.043-.34-.624c-.182-.34-.635-1.2-1.01-1.918s-.726-1.384-.806-1.487a1.116,1.116,0,0,0-1.691-.034c-.511.545-.409.84,1.362,4.256,1.668,3.2,1.884,3.507,2.5,3.507.647,0,.817-.216,1.861-2.361a20.051,20.051,0,0,1,1.055-2.043c.023.023.5.931,1.055,2.009l1.01,1.963-.34.182a15.251,15.251,0,0,0-5.606,4.959l-.658.965-9.26-.023L3.9-462.053l-.443-.306a3.449,3.449,0,0,1-.726-.738l-.284-.42v-16.478l.284-.42a3.443,3.443,0,0,1,.726-.738l.443-.306,2.939-.057,2.951-.057.329-.375a.927.927,0,0,0,0-1.407l-.329-.374-2.826-.023A15.511,15.511,0,0,0,3.562-483.615Zm34.294,16.682a12.536,12.536,0,0,1,9.2,8.091,12.457,12.457,0,0,1-5.685,14.991,12.721,12.721,0,0,1-8.625,1.316,12.534,12.534,0,0,1-9.2-8.091,12.486,12.486,0,0,1,9.714-16.409A14.558,14.558,0,0,1,37.856-466.933Z" transform="translate(0 0)" fill="#fff" stroke="#fff" stroke-width="0.75"/>
    <path id="Path_31" data-name="Path 31" d="M231.137-315.7a10.233,10.233,0,0,0-5.788,2.882,10.147,10.147,0,0,0-2.678,4.766,11.751,11.751,0,0,0,0,4.539,10.064,10.064,0,0,0,7.444,7.444,11.747,11.747,0,0,0,4.539,0,10.063,10.063,0,0,0,7.444-7.444,11.751,11.751,0,0,0,0-4.539,10.057,10.057,0,0,0-7.274-7.4A14.911,14.911,0,0,0,231.137-315.7Zm2.746,2.372a7.787,7.787,0,0,1,5.856,5.243,5.808,5.808,0,0,1,.3,2.3,5.808,5.808,0,0,1-.3,2.3,7.736,7.736,0,0,1-7.751,5.379,7.709,7.709,0,0,1-7.286-7.285A7.722,7.722,0,0,1,233.883-313.324Z" transform="translate(-197.083 -148.957)" fill="#fff" stroke="#fff" stroke-width="0.75"/>
    <path id="Path_32" data-name="Path 32" d="M301-272.821a1.221,1.221,0,0,0-.692.942,1.1,1.1,0,0,0,.953,1.169,8.312,8.312,0,0,1,1.01.238,2.913,2.913,0,0,1,1.963,2.621,1.261,1.261,0,0,0,1.033,1.123.761.761,0,0,0,.76-.238c.431-.363.533-.817.374-1.714a5.168,5.168,0,0,0-4.085-4.131A2.18,2.18,0,0,0,301-272.821Z" transform="translate(-266.096 -186.918)" fill="#fff" stroke="#fff" stroke-width="0.75"/>
    <path id="Path_33" data-name="Path 33" d="M116.726-483.681a1.377,1.377,0,0,0-.726,1.044,1.17,1.17,0,0,0,.329.692,1.064,1.064,0,0,0,1.884-.7A1.118,1.118,0,0,0,116.726-483.681Z" transform="translate(-102.713 -0.002)" fill="#fff" stroke="#fff" stroke-width="0.75"/>
    <path id="Path_34" data-name="Path 34" d="M43.706-413.717a1.036,1.036,0,0,0-.533,1.1,34.379,34.379,0,0,0,1.645,3.439c1.657,3.189,1.861,3.461,2.542,3.461.556,0,.908-.465,1.85-2.485a21.307,21.307,0,0,1,.965-1.929c.034-.011.511.885,1.078,1.986a19.082,19.082,0,0,0,1.214,2.167,1.468,1.468,0,0,0,.624.227.757.757,0,0,0,.749-.2,40.225,40.225,0,0,0,3.257-6.809,1.057,1.057,0,0,0-1.589-.953c-.306.159-.511.488-1.35,2.247l-.987,2.043-.579-1.067c-.318-.59-.783-1.487-1.033-1.986-.567-1.135-.931-1.453-1.532-1.373a1.42,1.42,0,0,0-.613.216,17.976,17.976,0,0,0-1.169,2.19l-.976,2.043-1.055-2.009a13.984,13.984,0,0,0-1.339-2.247A1.022,1.022,0,0,0,43.706-413.717Z" transform="translate(-38.135 -61.954)" fill="#fff" stroke="#fff" stroke-width="0.75"/>
    <path id="Path_35" data-name="Path 35" d="M431.01-141.3a.99.99,0,0,0-.568,1.271,1.087,1.087,0,0,0,2.043.148.955.955,0,0,0-.182-1.158A.975.975,0,0,0,431.01-141.3Z" transform="translate(-381.42 -303.47)" fill="#fff" stroke="#fff" stroke-width="0.75"/>
  </g>
</svg>
