<svg xmlns="http://www.w3.org/2000/svg" width="37.114" height="35.501" viewBox="0 0 37.114 35.501">
  <g id="company" transform="translate(0.25 500.553)">
    <path id="Path_36" data-name="Path 36" d="M9.654-500.273a1.652,1.652,0,0,0-1.294.965c-.114.25-.136.493-.136,2.088v1.8l-1.23.407a15.256,15.256,0,0,0-1.53.579,2.714,2.714,0,0,0-.987,1.094l-.15.329-.021,9.6-.014,9.6H4.055a4.5,4.5,0,0,0-1.623.479,4.722,4.722,0,0,0-1.959,1.966c-.408.851-.472,1.28-.472,3.239,0,1.523.021,1.752.136,2.009a1.339,1.339,0,0,0,.937.737c.451.107,34.018.107,34.468,0a1.339,1.339,0,0,0,.937-.737c.122-.264.136-.5.136-2.438,0-2.338-.029-2.6-.415-3.383a4.01,4.01,0,0,0-1.416-1.459,3.715,3.715,0,0,0-1.759-.415h-.558v-4.527c0-4.906,0-4.927-.393-5.435a1.884,1.884,0,0,0-.558-.443l-.365-.179H21.382v-13.408l.629.615c.343.336,1.28,1.251,2.088,2.024a20.418,20.418,0,0,1,1.588,1.638c.114.207.122.572.129,3.754v3.526l.179.171a.494.494,0,0,0,.744.014l.157-.172-.021-3.676-.021-3.676-.193-.393c-.164-.336-.636-.83-2.818-2.932-1.437-1.394-2.71-2.581-2.818-2.639-.193-.093-.465-.014-4.784,1.438l-4.584,1.53v-1.08a5.979,5.979,0,0,0-.107-1.437A1.651,1.651,0,0,0,9.654-500.273Zm.536,1.116a.588.588,0,0,1,.315.329,8.495,8.495,0,0,1,.079,1.423v1.194L9.94-496l-.644.222V-497.3c0-1.423.007-1.538.143-1.709a.609.609,0,0,1,.307-.215.889.889,0,0,0,.179-.043A1.441,1.441,0,0,1,10.19-499.157Zm10.119,2.274v1.459l-3.018,1.008c-6.615,2.21-8.882,3-8.975,3.125a.518.518,0,0,0,.4.815c.114,0,2.746-.851,5.85-1.9s5.657-1.895,5.692-1.895a9.04,9.04,0,0,1,.05,1.352v1.352l-3.447,1.151c-6.479,2.16-8.445,2.846-8.546,2.982a.518.518,0,0,0,.4.815c.114,0,2.746-.851,5.857-1.9s5.671-1.9,5.692-1.9a11.248,11.248,0,0,1,.043,1.352v1.352l-3.769,1.259c-6.415,2.138-8.124,2.739-8.224,2.875a.518.518,0,0,0,.4.815c.114,0,2.746-.851,5.857-1.895s5.664-1.9,5.685-1.9a8.981,8.981,0,0,1,.05,1.344v1.352L14.4-481.866c-4.112,1.38-5.957,2.031-6.043,2.131a.515.515,0,0,0,.372.844c.107,0,2.739-.851,5.842-1.9s5.664-1.895,5.692-1.895a8.649,8.649,0,0,1,.05,1.323c0,1.208-.014,1.323-.136,1.387-.072.043-1.716.608-3.661,1.259s-3.6,1.23-3.683,1.287a.478.478,0,0,0-.136.658c.257.393.172.415,3.969-.865,1.938-.651,3.547-1.187,3.583-1.187s.057,2.617.05,6.2l-.021,6.207-2.3.021-2.31.014v-2.839c0-1.645-.029-2.953-.072-3.1a1.237,1.237,0,0,0-1.28-.808c-.751.172-5.256,1.459-5.413,1.545a1.3,1.3,0,0,0-.322.236c-.307.35-.315.422-.35,2.71l-.036,2.217H5.4l-.021-13.122-.014-13.13.157-.315a1.617,1.617,0,0,1,.35-.451c.107-.079,2.825-1.023,6.043-2.1s6.407-2.153,7.072-2.381,1.237-.422,1.273-.422A10.313,10.313,0,0,1,20.309-496.883Zm10.9,13.78.186.222v9.318l-.365.214a3.693,3.693,0,0,0-1.781,3.2v.415H21.382v-13.587h9.64ZM4.291-471.239v1.5H1.073l.043-.2a3.515,3.515,0,0,1,1.037-1.9,3.271,3.271,0,0,1,1.945-.894l.193-.007ZM34.168-472.5a2.43,2.43,0,0,1,1.359,2.174l.036.594H30.3l.043-.565a2.621,2.621,0,0,1,.679-1.673,2.3,2.3,0,0,1,2.052-.744A2.1,2.1,0,0,1,34.168-472.5Zm-19.594,3.311-.021,2.782H12.479l-.021-2.546-.014-2.539,1.015-.293a6.043,6.043,0,0,1,1.08-.243C14.567-472,14.581-470.731,14.574-469.194Zm-3.2.422v2.4H9.3l.014-2.124.021-2.131.93-.265c.515-.143.973-.264,1.023-.264A9.481,9.481,0,0,1,11.37-468.772Zm-7.08,1.251v1.144H2.868a10.619,10.619,0,0,1-1.609-.072l-.186-.072v-2.145H4.291Zm24.957,0v1.144H21.382v-2.288h7.866Zm6.293-.129a5.617,5.617,0,0,1-.072,1.13c-.057.093-.422.107-2.589.107H30.357l-.021-1.13-.021-1.123h5.227Z" transform="translate(0 0)" fill="#fff" stroke="#fff" stroke-width="0.5"/>
    <path id="Path_37" data-name="Path 37" d="M116.37-170.529a4.382,4.382,0,0,0-1.194.508.524.524,0,0,0,.386.822,12.184,12.184,0,0,0,2.453-.837.669.669,0,0,0,.093-.357.494.494,0,0,0-.486-.515A11.322,11.322,0,0,0,116.37-170.529Z" transform="translate(-106.852 -305.83)" fill="#fff" stroke="#fff" stroke-width="0.5"/>
    <path id="Path_38" data-name="Path 38" d="M319.422-244.836c-.372.25-.422.415-.422,1.395s.064,1.18.429,1.4c.179.1.544.114,3.1.114h2.889l.243-.164c.35-.236.436-.565.408-1.48-.036-.865-.136-1.137-.515-1.316-.214-.1-.6-.114-3.068-.114C319.665-245,319.665-245,319.422-244.836Zm5.585,1.373V-243h-4.934v-.93h4.934Z" transform="translate(-296.188 -237.037)" fill="#fff" stroke="#fff" stroke-width="0.5"/>
    <path id="Path_39" data-name="Path 39" d="M319.4-187.836a1.209,1.209,0,0,0-.329.336,5.7,5.7,0,0,0,.014,2.145c.222.429.243.429,3.461.429h2.925l.222-.186c.293-.25.386-.629.35-1.495-.036-.83-.143-1.1-.515-1.28-.215-.1-.6-.114-3.068-.114C319.638-188,319.638-188,319.4-187.836Zm5.585,1.373V-186h-4.934v-.93h4.934Z" transform="translate(-296.161 -289.961)" fill="#fff" stroke="#fff" stroke-width="0.5"/>
    <path id="Path_40" data-name="Path 40" d="M319.422-129.878c-.358.222-.422.429-.422,1.394,0,.987.05,1.144.429,1.4.243.157.293.164,1.416.143l1.173-.021.243-.265.243-.272v-.93c0-1.509-.072-1.573-1.766-1.573C319.822-130,319.572-129.971,319.422-129.878Zm2.01,1.416V-128h-1.359v-.93h1.359Z" transform="translate(-296.188 -343.813)" fill="#fff" stroke="#fff" stroke-width="0.5"/>
  </g>
</svg>
