<svg xmlns="http://www.w3.org/2000/svg" width="61.77" height="72.542" viewBox="0 0 61.77 72.542">
  <g id="professional_registration" transform="translate(-49 500.264)">
    <path id="Path_232" data-name="Path 232" d="M53.068-499.6a5.463,5.463,0,0,0-3.172,2.775l-.4.764v64.166l.411.778a5.339,5.339,0,0,0,2.335,2.393l.925.5H98.4l.837-.4a5.65,5.65,0,0,0,2.584-2.584l.4-.837.044-20.718.029-20.733.69-.1a8.986,8.986,0,0,0,7.019-6.461,11.7,11.7,0,0,0,0-4.405,8.97,8.97,0,0,0-5.389-6.005,10.239,10.239,0,0,0-1.615-.455l-.675-.1-.059-2.452c-.044-2.276-.073-2.5-.441-3.274a5.65,5.65,0,0,0-2.584-2.584l-.837-.4L76-499.759C57.84-499.788,53.509-499.759,53.068-499.6Zm45.474,1.806a4.668,4.668,0,0,1,1.777,1.806,6.562,6.562,0,0,1,.323,2.716l.059,2.217-1,.191a9.462,9.462,0,0,0-5.58,3.8,9.785,9.785,0,0,0-.969,2.041,8.985,8.985,0,0,0,.719,7.21,10.976,10.976,0,0,0,2.76,2.893,9.39,9.39,0,0,0,3.348,1.321l.69.1-.029,20.513-.044,20.5-.323.587a4.669,4.669,0,0,1-1.806,1.777c-.5.264-1.336.279-22.612.279-21.57,0-22.113,0-22.671-.279a4.219,4.219,0,0,1-1.791-1.791c-.279-.558-.279-1.248-.323-31.775-.029-22.847,0-31.349.117-31.775a3.828,3.828,0,0,1,2.511-2.57c.323-.088,8.56-.132,22.377-.117l21.878.029Zm6.358,12.76a.745.745,0,0,1,.323.675c0,.4-.294.763-2.085,2.584-2.232,2.232-2.746,2.628-3.172,2.393a14.455,14.455,0,0,1-2.276-2.393c-.117-.323.426-1,.793-1a2.725,2.725,0,0,1,1.028.69l.734.69,1.865-1.85c1.63-1.615,2.041-1.968,2.379-2.012A1,1,0,0,1,104.9-485.031Z" transform="translate(0)" fill="#8967b3" stroke="#8967b3" stroke-width="1"/>
    <path id="Path_233" data-name="Path 233" d="M159.129-472.784a.926.926,0,0,0-.5,1.028c.191.573.294.587,7.533.587,7.767,0,7.533.029,7.444-.94-.073-.808-.117-.822-7.459-.808C162.477-472.916,159.32-472.857,159.129-472.784Z" transform="translate(-93.081 -22.907)" fill="#8967b3" stroke="#8967b3" stroke-width="1"/>
    <path id="Path_234" data-name="Path 234" d="M280.082-472.743a.826.826,0,0,0-.5,1.072c.176.455.426.543,1.468.543.646,0,.91-.073,1.1-.279a.838.838,0,0,0-.206-1.292A2.992,2.992,0,0,0,280.082-472.743Z" transform="translate(-196.252 -22.948)" fill="#8967b3" stroke="#8967b3" stroke-width="1"/>
    <path id="Path_235" data-name="Path 235" d="M199.6-419.608a4.974,4.974,0,0,0-3.245,3.01,5.344,5.344,0,0,0,.162,3.759,5.354,5.354,0,0,0,2.276,2.291,4,4,0,0,0,2.129.352,3.759,3.759,0,0,0,2.085-.352,5.016,5.016,0,0,0,2.731-4.053A4.869,4.869,0,0,0,199.6-419.608Z" transform="translate(-125.063 -68.243)" fill="#8967b3" stroke="#8967b3" stroke-width="1"/>
    <path id="Path_236" data-name="Path 236" d="M178.2-346.668a8.859,8.859,0,0,0-5.888,5.168c-.954,2.07-1.439,4.89-.969,5.609l.235.367h16.152l.22-.352c.411-.617-.073-3.641-.852-5.4C185.353-345.215,181.8-347.373,178.2-346.668Z" transform="translate(-103.8 -130.507)" fill="#8967b3" stroke="#8967b3" stroke-width="1"/>
    <path id="Path_237" data-name="Path 237" d="M116.5-233.633c-.441.426-.455.514-.059,1.013l.294.382h15.975c15.285,0,15.99-.015,16.21-.264a.859.859,0,0,0-.073-1.263c-.294-.206-2.07-.235-16.166-.235H116.855Z" transform="translate(-56.871 -226.745)" fill="#8967b3" stroke="#8967b3" stroke-width="1"/>
    <path id="Path_238" data-name="Path 238" d="M116.5-180.635c-.441.426-.455.514-.059,1.013l.294.382h15.9c17.5,0,16.533.044,16.533-.881s.954-.881-16.489-.881H116.855Z" transform="translate(-56.871 -271.961)" fill="#8967b3" stroke="#8967b3" stroke-width="1"/>
    <path id="Path_239" data-name="Path 239" d="M170.294-127.706a1.015,1.015,0,0,0-.294.587,1.016,1.016,0,0,0,.294.587c.294.294.485.294,8.3.294h8.017l.352-.367a1.187,1.187,0,0,0,.367-.514,1.187,1.187,0,0,0-.367-.514l-.352-.367H178.59C170.778-128,170.587-128,170.294-127.706Z" transform="translate(-102.807 -317.181)" fill="#8967b3" stroke="#8967b3" stroke-width="1"/>
    <path id="Path_240" data-name="Path 240" d="M211.158-76.217A2.855,2.855,0,0,0,209-73.4a2.9,2.9,0,0,0,4.8,2.2,2.886,2.886,0,0,0,.029-4.42A2.7,2.7,0,0,0,211.158-76.217Z" transform="translate(-136.08 -361.255)" fill="#8967b3" stroke="#8967b3" stroke-width="1"/>
  </g>
</svg>
